<svg version="1.2" xmlns="http://www.w3.org/2000/svg" viewBox="0 0 491 97" width="491" height="97">
	<style>
		.s0 { fill: url(#gradient) }
	</style>
	<defs>
		<linearGradient id="gradient" x1="0%" y1="0%" x2="100%" y2="0%" gradientTransform="rotate(90)">
			<stop offset="50%" stop-color="#3a75c4" />
			<stop offset="50%" stop-color="#f9dd16" />
		</linearGradient>
	</defs>
	<path id="INISYNC" class="s0" d="m1.8 94v-89.2h20.3v89.2zm93.4 0l-34.8-63.8c0.6 9.4 0.7 18.6 0.7 25v38.8h-20.3v-89.2h26l35.9 65.7c-0.5-9.3-0.6-19.4-0.6-26v-39.7h20.2v89.2zm45.7 0v-89.2h20.3v89.2zm96-65.3h-8.4c-1.5-12.1-9.3-19.2-21.1-19.2c-10.2 0-19.6 5.3-19.6 15.9c0 10.8 6.3 14.8 21.6 18.7c19.1 4.9 28.7 12.2 28.7 26.9c0 14.7-12.9 24.8-30 24.8c-18.1 0-31.2-9.2-33.1-26.4h8.5c2.2 12.8 12.1 19.9 24.9 19.9c11.7 0 21.1-6.7 21.1-17c0-11.5-6.7-16.4-23.3-20.6c-17-4.4-27.1-10.3-27.1-24.6c0-14.5 13.2-24.1 29-24.1c17.8 0 27.1 11.3 28.8 25.7zm48.7 65.3h-8v-35.5l-31.5-53.7h9.2l26.7 45.8l26.1-45.8h9.2l-31.7 53.5zm98 0l-46.4-81.4c0.3 11 0.4 24.3 0.4 35.4v46h-8v-89.1h12.1l46.5 81.4c-0.2-11.1-0.3-24.3-0.3-35.4v-46h7.8l0.2 89.1zm105.2-61.4l0.1 1.3h-8l-0.3-1.3c-2.7-13.5-11.6-23.1-27.5-23.1c-18.4 0-32.2 15.7-32.2 39.9c0 24.9 13.2 40 31.3 40c16.5 0 25.3-10 28-23.7l0.3-1.3h8l-0.1 1.3c-2.4 16.4-14 30.1-36.7 30.1c-24.5 0-39.7-18.8-39.7-46c0-27.4 17.1-46.7 41.5-46.7c21.4 0 32.9 12.6 35.3 29.5z" />
</svg>
